<svg id="Layer_1" data-name="Layer 1" xmlns="http://www.w3.org/2000/svg" viewBox="0 0 146 42.06"><defs><style>.cls-1{fill:#fff;}</style></defs><title>logo_white1</title><path class="cls-1" d="M828,231a7.78,7.78,0,0,0-5.52-2.29,8.3,8.3,0,0,0-8.29,8.3v18.24a6,6,0,0,1,0,11.93v3h16.1V236.52A7.76,7.76,0,0,0,828,231Zm-9.27,1.41a6,6,0,0,1,8.23,1.86l-10.08,6.37A6,6,0,0,1,818.72,232.41Zm7,11.1a6,6,0,0,1-8.23-1.86l10.09-6.37A6,6,0,0,1,825.73,243.51Z" transform="translate(-797 -228.64)"/><path class="cls-1" d="M799.29,268.41a7.74,7.74,0,0,0,5.52,2.29,8.29,8.29,0,0,0,8.29-8.29V244.16a6,6,0,0,1,0-11.93v-3H797v33.64A7.74,7.74,0,0,0,799.29,268.41Zm9.27-1.41a6,6,0,0,1-8.23-1.85l10.08-6.37A6,6,0,0,1,808.56,267Zm-7-11.09a6,6,0,0,1,8.23,1.86l-10.09,6.37A6,6,0,0,1,801.55,255.91Z" transform="translate(-797 -228.64)"/><path class="cls-1" d="M846.77,270.49a14.69,14.69,0,0,1-4.61-.7,13.76,13.76,0,0,1-3.95-2,14,14,0,0,1-3.1-3.14,13.42,13.42,0,0,1-2-4.05l7.94-3.25a7.49,7.49,0,0,0,2,3.5,5.13,5.13,0,0,0,3.75,1.37,4.69,4.69,0,0,0,3.58-1.37,6,6,0,0,0,1.29-4.22V229.54h8.73v27.19a15.34,15.34,0,0,1-1.09,6,12.28,12.28,0,0,1-3,4.31,12.12,12.12,0,0,1-4.34,2.6A15.47,15.47,0,0,1,846.77,270.49Z" transform="translate(-797 -228.64)"/><path class="cls-1" d="M867.75,229.54h8.62l11.41,19.58h.56l11.41-19.58h8.62V269.6h-8.62V251.86l.56-6.71h-.56l-9.12,15.94h-5.14l-9.12-15.94h-.56l.56,6.71V269.6h-8.62Z" transform="translate(-797 -228.64)"/><path class="cls-1" d="M929.13,270.49a15.27,15.27,0,0,1-15.39-11.58l8.22-3.25a10.82,10.82,0,0,0,2.41,4.7,6.1,6.1,0,0,0,4.76,1.85,8.16,8.16,0,0,0,1.93-.22,5.16,5.16,0,0,0,1.62-.7,3.88,3.88,0,0,0,1.14-1.21,3.09,3.09,0,0,0,.45-1.67,4.31,4.31,0,0,0-.36-1.77,4.26,4.26,0,0,0-1.2-1.51,12.33,12.33,0,0,0-2.24-1.4,36.12,36.12,0,0,0-3.53-1.48l-2.46-.89a19.52,19.52,0,0,1-3.22-1.54,14.23,14.23,0,0,1-3-2.38,11.64,11.64,0,0,1-2.18-3.22,9.53,9.53,0,0,1-.84-4.05,11,11,0,0,1,1-4.53,10.74,10.74,0,0,1,2.69-3.67,12.76,12.76,0,0,1,4.19-2.43,17.49,17.49,0,0,1,10.8-.09,13.3,13.3,0,0,1,3.81,2.07,10.3,10.3,0,0,1,2.48,2.83,16,16,0,0,1,1.43,3l-7.55,3.19a6.16,6.16,0,0,0-2-2.88,5.3,5.3,0,0,0-3.47-1.09,6,6,0,0,0-3.55.92,2.79,2.79,0,0,0-1.32,2.38,3.49,3.49,0,0,0,1.35,2.68,14.74,14.74,0,0,0,4.75,2.35l2.46.84a19.39,19.39,0,0,1,7.89,4.65,10.8,10.8,0,0,1,2.8,7.83,11,11,0,0,1-1.26,5.42,12,12,0,0,1-3.24,3.81,14.24,14.24,0,0,1-4.48,2.27A16.9,16.9,0,0,1,929.13,270.49Z" transform="translate(-797 -228.64)"/></svg>